# xmcd CD database file
#
# Track frame offsets:
#	150
#	12830
#	27796
#	50072
#	66751
#	85641
#
# Disc length: 1379 seconds
#
# Revision: 0
# Processed by: cddbd v1.5.2PL0 Copyright (c) Steve Scherf et al.
# Submitted via: CDex 1.70beta2
#
DISCID=40056106
DTITLE=Aria Asia - Gypsy Girl
DYEAR=2008
DGENRE=New Age
TTITLE0=Toss The Feathers
TTITLE1=Gypsy Girl
TTITLE2=Green Days
TTITLE3=Heartland
TTITLE4=琉球哀歌
TTITLE5=aria031
EXTD=YEAR: 2008
EXTT0=
EXTT1=
EXTT2=
EXTT3=
EXTT4=
EXTT5=
PLAYORDER=
